# xmcd CD database file
#
# Track frame offsets:
#	150
#	26136
#	47022
#	67856
#	93856
#	111251
#	131587
#	150295
#	169820
#	188955
#	207663
#	224988
#	244293
#	267634
#	283677
#
# Disc length: 4067 seconds
#
# Revision: 0
# Processed by: cddbd v1.5.1PL0 Copyright (c) Steve Scherf et al.
# Submitted via: CDex 1.51
#
DISCID=e90fe10f
DTITLE=Play It Again - Smooth Sax Favorites
DYEAR=2005
DGENRE=Jazz
TTITLE0=For The Sake Of The Call
TTITLE1=This Is My Father's World
TTITLE2=I'll Be Around
TTITLE3=Awesome God
TTITLE4=All Creatures Of Our God and Kind
TTITLE5=The Great Divide
TTITLE6=What Child Is This?
TTITLE7=My Jesus, I Love Thee
TTITLE8=Heaven In The Real World
TTITLE9=Crown Him With Many Crowns
TTITLE10=Breath Of Heaven
TTITLE11='Tis So Sweet To Trust In Jesus
TTITLE12=It is Well With My Soul
TTITLE13=Build My world Around You
TTITLE14=I Surrender All
EXTD=YEAR: 2005
EXTT0=
EXTT1=
EXTT2=
EXTT3=
EXTT4=
EXTT5=
EXTT6=
EXTT7=
EXTT8=
EXTT9=
EXTT10=
EXTT11=
EXTT12=
EXTT13=
EXTT14=
PLAYORDER=
